<svg width="70" height="70" viewBox="0 0 70 70" fill="none" xmlns="http://www.w3.org/2000/svg">
<g clip-path="url(#clip0_1_354)">
<path d="M32.6495 32.7349H34.9816V43.2294H32.6495V32.7349Z" fill="#2196F3"/>
<path d="M41.9779 37.399H44.31V43.2293H41.9779V37.399Z" fill="#2196F3"/>
<path d="M23.321 40.8972H25.6531V43.2293H23.321V40.8972Z" fill="#2196F3"/>
<path d="M16.3246 39.7311H18.6568V43.2293H16.3246V39.7311Z" fill="#2196F3"/>
<path d="M3.49805 61.8863H59.4687C61.4006 61.8863 62.9669 60.32 62.9669 58.3881V53.7239C62.9669 51.792 61.4006 50.2257 59.4687 50.2257H58.3027V21.1466L64.9261 14.8722C66.4634 15.63 68.3241 15.17 69.3301 13.7813C70.3368 12.3932 70.1956 10.4819 68.9965 9.25659C67.7974 8.03132 65.89 7.84856 64.4797 8.82388C63.07 9.79977 62.5689 11.6496 63.2932 13.2034L58.3027 17.9343V15.244C58.3027 13.3122 56.7364 11.7458 54.8045 11.7458H8.16227C6.23042 11.7458 4.6641 13.3122 4.6641 15.244V50.2257H3.49805C1.5662 50.2257 -0.00012207 51.792 -0.00012207 53.7239V58.3881C-0.00012207 60.32 1.5662 61.8863 3.49805 61.8863ZM66.4651 10.5798C67.109 10.5798 67.6311 11.1019 67.6311 11.7458C67.6311 12.3898 67.109 12.9119 66.4651 12.9119C65.8211 12.9119 65.299 12.3898 65.299 11.7458C65.299 11.1019 65.8211 10.5798 66.4651 10.5798ZM6.99622 15.244C6.99622 14.6001 7.51832 14.078 8.16227 14.078H54.8045C55.4485 14.078 55.9706 14.6001 55.9706 15.244V20.1411L53.6385 22.3571V17.5761C53.6385 16.9322 53.1164 16.4101 52.4724 16.4101H10.4944C9.85043 16.4101 9.32833 16.9322 9.32833 17.5761V46.7275C9.32833 47.3715 9.85043 47.8936 10.4944 47.8936H52.4724C53.1164 47.8936 53.6385 47.3715 53.6385 46.7275V25.5649L55.9706 23.3552V50.2257H6.99622V15.244ZM17.4907 30.4028C15.913 30.3982 14.5278 31.4492 14.1081 32.97C13.6885 34.4908 14.3382 36.1038 15.695 36.9089C17.0512 37.714 18.7792 37.5118 19.9128 36.4147L23.9661 38.4484C24.437 38.6841 25.008 38.5737 25.3582 38.1803L33.9744 28.4868L42.4442 34.8335C42.8986 35.174 43.5328 35.1376 43.9451 34.7476L51.3064 27.7746V45.5615H11.6604V18.7422H51.3064V24.5617L43.0563 32.3745L34.5153 25.9714C34.0302 25.6081 33.3475 25.6765 32.9444 26.1291L24.2098 35.9569L20.9445 34.324C20.9684 34.1839 20.9832 34.0427 20.9889 33.9009C20.9889 31.9691 19.4226 30.4028 17.4907 30.4028ZM18.6568 33.9009C18.6568 34.5449 18.1347 35.067 17.4907 35.067C16.8468 35.067 16.3247 34.5449 16.3247 33.9009C16.3247 33.257 16.8468 32.7349 17.4907 32.7349C18.1347 32.7349 18.6568 33.257 18.6568 33.9009ZM25.6531 52.5578H37.3137V53.7239C37.3137 54.3678 36.7916 54.8899 36.1476 54.8899H26.8192C26.1752 54.8899 25.6531 54.3678 25.6531 53.7239V52.5578ZM2.33199 53.7239C2.33199 53.0799 2.8541 52.5578 3.49805 52.5578H23.321V53.7239C23.321 55.6557 24.8873 57.2221 26.8192 57.2221H36.1476C38.0795 57.2221 39.6458 55.6557 39.6458 53.7239V52.5578H59.4687C60.1127 52.5578 60.6348 53.0799 60.6348 53.7239V58.3881C60.6348 59.0321 60.1127 59.5542 59.4687 59.5542H3.49805C2.8541 59.5542 2.33199 59.0321 2.33199 58.3881V53.7239Z" fill="#212121"/>
</g>
<defs>
<clipPath id="clip0_1_354">
<rect width="70" height="70" fill="white" transform="translate(-0.00012207 -0.000244141)"/>
</clipPath>
</defs>
</svg>
